<?xml version="1.0" standalone="no"?>
<!DOCTYPE svg PUBLIC "-//W3C//DTD SVG 20010904//EN"
 "http://www.w3.org/TR/2001/REC-SVG-20010904/DTD/svg10.dtd">
<svg version="1.0" xmlns="http://www.w3.org/2000/svg"
 width="570.000000pt" height="380.000000pt" viewBox="0 0 570.000000 380.000000"
 preserveAspectRatio="xMidYMid meet">
<metadata>
Created by potrace 1.15, written by Peter Selinger 2001-2017
</metadata>
<g transform="translate(0.000000,380.000000) scale(0.100000,-0.100000)"
fill="#000000" stroke="none">
<path d="M2460 2569 c-342 -29 -756 -118 -915 -196 -110 -55 -135 -108 -135
-287 l0 -111 -83 -2 c-135 -2 -377 -70 -514 -143 -154 -83 -333 -241 -333
-295 0 -25 3 -27 33 -22 17 3 68 15 112 26 73 19 255 30 255 16 0 -3 -10 -22
-23 -43 -34 -54 -47 -98 -47 -161 1 -90 43 -159 112 -184 22 -8 22 1 3 27 -34
45 -9 121 60 185 62 57 130 88 236 107 84 16 109 16 253 4 359 -29 460 -22
524 39 36 33 68 167 58 241 l-6 47 42 7 c487 79 929 88 1408 30 68 -8 126 -16
128 -18 2 -2 5 -50 7 -107 8 -248 69 -336 251 -364 68 -10 226 12 454 66 272
64 343 73 433 52 115 -25 202 -114 179 -182 -6 -17 -6 -34 -1 -42 8 -11 13 -9
30 11 19 22 21 34 17 98 -7 98 -55 195 -138 279 -34 34 -58 63 -53 66 40 25
255 12 332 -19 42 -18 41 -18 41 6 0 12 -27 47 -64 83 -95 92 -250 174 -411
216 -80 21 -265 43 -301 36 -10 -2 -40 -6 -65 -9 l-46 -5 -7 84 c-7 102 -23
183 -41 211 -39 61 -479 188 -805 233 -217 30 -738 41 -980 20z m705 -29 c383
-20 771 -101 990 -206 l59 -29 14 -65 c21 -101 10 -305 -21 -396 -21 -59 -52
-130 -62 -142 -2 -2 -39 13 -82 34 -101 48 -315 117 -423 137 -182 33 -211 37
-341 48 -158 14 -593 17 -764 7 -386 -24 -684 -89 -940 -203 -56 -25 -60 -26
-72 -8 -48 64 -82 293 -66 430 17 135 17 135 135 192 120 59 220 89 413 126
399 76 735 97 1160 75z m1465 -570 c128 -26 258 -72 343 -122 63 -37 141 -97
135 -104 -2 -1 -30 4 -63 12 -111 26 -286 12 -300 -24 -4 -11 8 -28 37 -53 24
-21 46 -38 50 -39 4 0 32 -32 62 -71 55 -69 87 -143 86 -198 -1 -24 -2 -24
-20 10 -75 143 -236 190 -480 140 -58 -12 -179 -38 -270 -57 -262 -56 -411
-50 -486 21 -41 39 -44 72 -9 109 60 65 206 92 346 66 68 -13 70 -13 95 11 34
32 77 126 105 226 25 95 15 89 172 92 65 0 133 -6 197 -19z m-3193 -124 c24
-103 64 -191 95 -207 13 -7 42 -5 95 7 92 20 258 16 316 -9 73 -31 38 -92 -71
-123 -64 -19 -133 -19 -297 -2 -202 22 -414 12 -490 -22 -11 -5 -36 -16 -56
-25 -56 -25 -117 -82 -143 -134 -23 -44 -24 -45 -31 -20 -9 35 21 155 51 207
19 33 23 47 15 55 -17 17 -221 12 -311 -7 -41 -9 -77 -16 -80 -16 -10 0 98
104 156 150 148 119 384 211 614 240 117 14 111 19 137 -94z"/>
</g>
</svg>
